<?xml version="1.0" encoding="UTF-8"?>
<svg xmlns="http://www.w3.org/2000/svg" xmlns:xlink="http://www.w3.org/1999/xlink" width="116.161" height="116.161" viewBox="0 0 116.161 116.161">
<defs>
<g>
<g id="glyph-0-0">
<path d="M 0.234375 -0.953125 C 0.234375 -0.734375 0.203125 -0.59375 0.140625 -0.25 C 0.125 -0.125 0.109375 -0.09375 0.09375 -0.015625 C 0.265625 0.078125 0.4375 0.125 0.5625 0.125 C 0.921875 0.125 1.34375 -0.1875 1.671875 -0.703125 L 2.5 -1.96875 L 2.625 -1.21875 C 2.765625 -0.296875 3.015625 0.125 3.40625 0.125 C 3.640625 0.125 3.984375 -0.0625 4.328125 -0.375 L 4.859375 -0.859375 L 4.765625 -1.0625 C 4.375 -0.734375 4.109375 -0.578125 3.9375 -0.578125 C 3.765625 -0.578125 3.625 -0.6875 3.515625 -0.90625 C 3.421875 -1.109375 3.296875 -1.5 3.25 -1.8125 L 3.046875 -2.90625 L 3.4375 -3.4375 C 3.9375 -4.140625 4.234375 -4.390625 4.5625 -4.390625 C 4.75 -4.390625 4.875 -4.3125 4.921875 -4.140625 L 5.078125 -4.1875 L 5.234375 -5.109375 C 5.109375 -5.1875 5.015625 -5.21875 4.921875 -5.21875 C 4.484375 -5.21875 4.046875 -4.828125 3.375 -3.828125 L 2.984375 -3.234375 L 2.90625 -3.75 C 2.78125 -4.828125 2.484375 -5.21875 1.859375 -5.21875 C 1.5625 -5.21875 1.328125 -5.125 1.234375 -4.984375 L 0.609375 -4.09375 L 0.796875 -3.984375 C 1.109375 -4.359375 1.328125 -4.5 1.53125 -4.5 C 1.890625 -4.5 2.140625 -4.0625 2.3125 -3 L 2.4375 -2.328125 L 2 -1.65625 C 1.53125 -0.9375 1.171875 -0.578125 0.859375 -0.578125 C 0.703125 -0.578125 0.578125 -0.625 0.5625 -0.6875 L 0.4375 -0.984375 Z M 0.234375 -0.953125 "/>
</g>
<g id="glyph-0-1">
<path d="M -0.078125 1.953125 C -0.09375 2.03125 -0.09375 2.09375 -0.09375 2.140625 C -0.09375 2.609375 0.3125 2.984375 0.796875 2.984375 C 1.953125 2.984375 3.140625 1.640625 3.78125 -0.359375 L 5.3125 -5.125 L 5.1875 -5.21875 C 4.875 -5.09375 4.625 -5.03125 4.390625 -5.015625 L 4 -3.578125 C 3.875 -3.078125 3.5 -2.28125 3.140625 -1.75 C 2.765625 -1.203125 2.234375 -0.71875 2 -0.71875 C 1.859375 -0.71875 1.765625 -0.96875 1.78125 -1.25 L 1.78125 -1.390625 L 1.953125 -3.484375 C 1.96875 -3.828125 2 -4.234375 2 -4.53125 C 2 -5.03125 1.921875 -5.21875 1.734375 -5.21875 C 1.59375 -5.21875 1.4375 -5.140625 0.921875 -4.78125 L 0.03125 -4.171875 L 0.15625 -3.984375 L 0.6875 -4.3125 L 0.734375 -4.34375 C 0.84375 -4.40625 0.921875 -4.4375 0.96875 -4.4375 C 1.109375 -4.4375 1.203125 -4.234375 1.203125 -3.875 C 1.203125 -3.859375 1.203125 -3.796875 1.1875 -3.71875 L 1 -1.078125 L 1 -0.65625 C 1 -0.1875 1.1875 0.125 1.46875 0.125 C 1.859375 0.125 2.765625 -0.796875 3.578125 -2.03125 L 3.046875 -0.171875 C 2.5 1.75 1.953125 2.53125 1.203125 2.53125 C 0.828125 2.53125 0.53125 2.234375 0.53125 1.859375 C 0.53125 1.8125 0.546875 1.71875 0.546875 1.625 L 0.4375 1.578125 Z M -0.078125 1.953125 "/>
</g>
<g id="glyph-1-0">
<path d="M 2.078125 -5.453125 C 0.859375 -5.453125 0.234375 -4.46875 0.234375 -2.5625 C 0.234375 -1.640625 0.390625 -0.84375 0.671875 -0.453125 C 0.953125 -0.0625 1.390625 0.15625 1.875 0.15625 C 3.078125 0.15625 3.671875 -0.875 3.671875 -2.890625 C 3.671875 -4.625 3.15625 -5.453125 2.078125 -5.453125 Z M 1.9375 -5.171875 C 2.703125 -5.171875 3.015625 -4.390625 3.015625 -2.5 C 3.015625 -0.8125 2.71875 -0.125 1.984375 -0.125 C 1.21875 -0.125 0.890625 -0.921875 0.890625 -2.84375 C 0.890625 -4.515625 1.1875 -5.171875 1.9375 -5.171875 Z M 1.9375 -5.171875 "/>
</g>
<g id="glyph-1-1">
<path d="M 2.21875 -1.4375 L 2.21875 -0.84375 C 2.21875 -0.359375 2.125 -0.25 1.734375 -0.234375 L 1.25 -0.21875 L 1.25 0.03125 C 2.296875 0 2.296875 0 2.484375 0 C 2.6875 0 2.6875 0 3.734375 0.03125 L 3.734375 -0.21875 L 3.359375 -0.234375 C 2.96875 -0.265625 2.875 -0.359375 2.875 -0.84375 L 2.875 -1.4375 C 3.34375 -1.4375 3.515625 -1.421875 3.734375 -1.40625 L 3.734375 -1.953125 C 3.359375 -1.921875 3.203125 -1.921875 3.09375 -1.9375 L 2.875 -1.9375 L 2.875 -3.03125 C 2.875 -4.4375 2.890625 -5.125 2.9375 -5.453125 L 2.84375 -5.484375 L 2.25 -5.265625 L 0.015625 -1.609375 L 0.109375 -1.4375 Z M 2.21875 -1.9375 L 0.515625 -1.9375 L 2.21875 -4.71875 Z M 2.21875 -1.9375 "/>
</g>
<g id="glyph-1-2">
<path d="M 0.34375 -3.9375 L 0.578125 -3.9375 L 0.734375 -4.375 C 0.8125 -4.65625 1.3125 -4.921875 1.71875 -4.921875 C 2.234375 -4.921875 2.65625 -4.5 2.65625 -4 C 2.65625 -3.40625 2.1875 -2.90625 1.625 -2.90625 C 1.5625 -2.90625 1.484375 -2.921875 1.375 -2.921875 L 1.25 -2.9375 L 1.15625 -2.515625 L 1.21875 -2.46875 C 1.515625 -2.59375 1.671875 -2.640625 1.875 -2.640625 C 2.53125 -2.640625 2.921875 -2.21875 2.921875 -1.5 C 2.921875 -0.703125 2.4375 -0.171875 1.703125 -0.171875 C 1.34375 -0.171875 1.015625 -0.28125 0.78125 -0.5 C 0.578125 -0.6875 0.484375 -0.859375 0.328125 -1.28125 L 0.125 -1.203125 C 0.28125 -0.734375 0.34375 -0.4375 0.390625 -0.046875 C 0.8125 0.09375 1.15625 0.15625 1.453125 0.15625 C 2.09375 0.15625 2.8125 -0.203125 3.25 -0.734375 C 3.515625 -1.046875 3.65625 -1.40625 3.65625 -1.765625 C 3.65625 -2.15625 3.5 -2.484375 3.203125 -2.6875 C 3.015625 -2.828125 2.828125 -2.890625 2.4375 -2.953125 C 3.0625 -3.453125 3.3125 -3.8125 3.3125 -4.28125 C 3.3125 -4.984375 2.71875 -5.453125 1.84375 -5.453125 C 1.296875 -5.453125 0.953125 -5.296875 0.5625 -4.921875 Z M 0.34375 -3.9375 "/>
</g>
<g id="glyph-1-3">
<path d="M 0.125 -0.1875 L 0.125 0.03125 C 1.609375 0 1.609375 0 1.890625 0 C 2.171875 0 2.171875 0 3.703125 0.03125 C 3.6875 -0.140625 3.6875 -0.21875 3.6875 -0.328125 C 3.6875 -0.4375 3.6875 -0.515625 3.703125 -0.6875 C 2.796875 -0.640625 2.421875 -0.640625 0.96875 -0.609375 L 2.40625 -2.140625 C 3.171875 -2.953125 3.40625 -3.390625 3.40625 -3.984375 C 3.40625 -4.890625 2.796875 -5.453125 1.78125 -5.453125 C 1.21875 -5.453125 0.828125 -5.296875 0.4375 -4.890625 L 0.3125 -3.8125 L 0.53125 -3.8125 L 0.640625 -4.1875 C 0.765625 -4.640625 1.046875 -4.84375 1.578125 -4.84375 C 2.265625 -4.84375 2.703125 -4.40625 2.703125 -3.734375 C 2.703125 -3.140625 2.359375 -2.5625 1.46875 -1.609375 Z M 0.125 -0.1875 "/>
</g>
<g id="glyph-1-4">
<path d="M 0.53125 -4.390625 L 0.609375 -4.390625 L 1.625 -4.84375 C 1.640625 -4.859375 1.640625 -4.859375 1.65625 -4.859375 C 1.703125 -4.859375 1.71875 -4.78125 1.71875 -4.59375 L 1.71875 -0.765625 C 1.71875 -0.34375 1.625 -0.265625 1.203125 -0.234375 L 0.765625 -0.21875 L 0.765625 0.03125 C 1.96875 0 1.96875 0 2.0625 0 C 2.171875 0 2.34375 0 2.609375 0.015625 C 2.703125 0.015625 2.984375 0.015625 3.3125 0.03125 L 3.3125 -0.21875 L 2.890625 -0.234375 C 2.453125 -0.265625 2.375 -0.34375 2.375 -0.765625 L 2.375 -5.453125 L 2.265625 -5.484375 C 1.75 -5.21875 1.1875 -4.984375 0.46875 -4.734375 Z M 0.53125 -4.390625 "/>
</g>
<g id="glyph-2-0">
<path d="M 5.4375 -1.890625 C 5.578125 -1.890625 5.71875 -1.890625 5.71875 -2.0625 C 5.71875 -2.234375 5.578125 -2.234375 5.4375 -2.234375 L 0.96875 -2.234375 C 0.828125 -2.234375 0.6875 -2.234375 0.6875 -2.0625 C 0.6875 -1.890625 0.828125 -1.890625 0.96875 -1.890625 Z M 5.4375 -1.890625 "/>
</g>
<g id="glyph-3-0">
<path d="M 4.296875 -6.4375 L 4.1875 -6.53125 C 3.734375 -6.296875 3.40625 -6.21875 2.765625 -6.15625 L 2.734375 -5.96875 L 3.15625 -5.96875 C 3.375 -5.96875 3.46875 -5.90625 3.46875 -5.75 C 3.46875 -5.6875 3.453125 -5.609375 3.453125 -5.546875 L 3.203125 -4.171875 C 2.9375 -4.25 2.6875 -4.296875 2.46875 -4.296875 C 1.859375 -4.296875 1.015625 -3.65625 0.609375 -2.875 C 0.328125 -2.359375 0.15625 -1.515625 0.15625 -0.765625 C 0.15625 -0.1875 0.28125 0.09375 0.546875 0.09375 C 0.78125 0.09375 1.109375 -0.046875 1.421875 -0.296875 C 1.890625 -0.6875 2.1875 -1.03125 2.78125 -1.9375 L 2.578125 -1.125 C 2.484375 -0.734375 2.4375 -0.453125 2.4375 -0.21875 C 2.4375 -0.03125 2.515625 0.078125 2.671875 0.078125 C 2.828125 0.078125 3.03125 -0.03125 3.34375 -0.25 L 4.0625 -0.78125 L 3.96875 -0.953125 L 3.578125 -0.671875 C 3.453125 -0.59375 3.3125 -0.53125 3.234375 -0.53125 C 3.15625 -0.53125 3.109375 -0.609375 3.109375 -0.734375 C 3.109375 -0.796875 3.125 -0.875 3.171875 -1.140625 Z M 3 -3.125 C 2.84375 -2.34375 2.40625 -1.5625 1.859375 -1.03125 C 1.546875 -0.734375 1.1875 -0.53125 1.015625 -0.53125 C 0.875 -0.53125 0.796875 -0.65625 0.796875 -0.875 C 0.796875 -2 1.203125 -3.390625 1.640625 -3.71875 C 1.75 -3.8125 1.921875 -3.859375 2.171875 -3.859375 C 2.5625 -3.859375 2.8125 -3.796875 3.109375 -3.65625 Z M 3 -3.125 "/>
</g>
<g id="glyph-4-0">
<path d="M 0.328125 -2.75 L 0.375 -2.75 L 1.015625 -3.03125 C 1.03125 -3.046875 1.03125 -3.046875 1.03125 -3.046875 C 1.0625 -3.046875 1.078125 -3 1.078125 -2.875 L 1.078125 -0.46875 C 1.078125 -0.21875 1.015625 -0.15625 0.75 -0.15625 L 0.46875 -0.140625 L 0.46875 0.015625 C 1.234375 0 1.234375 0 1.296875 0 C 1.359375 0 1.46875 0 1.640625 0 C 1.6875 0.015625 1.875 0.015625 2.078125 0.015625 L 2.078125 -0.140625 L 1.8125 -0.15625 C 1.546875 -0.15625 1.484375 -0.21875 1.484375 -0.46875 L 1.484375 -3.40625 L 1.421875 -3.4375 C 1.09375 -3.265625 0.75 -3.125 0.296875 -2.96875 Z M 0.328125 -2.75 "/>
</g>
<g id="glyph-4-1">
<path d="M 0.078125 -0.109375 L 0.078125 0.015625 C 1 0 1 0 1.1875 0 C 1.359375 0 1.359375 0 2.3125 0.015625 C 2.3125 -0.09375 2.3125 -0.140625 2.3125 -0.203125 C 2.3125 -0.265625 2.3125 -0.328125 2.3125 -0.4375 C 1.75 -0.40625 1.515625 -0.40625 0.609375 -0.375 L 1.5 -1.34375 C 1.984375 -1.84375 2.140625 -2.125 2.140625 -2.484375 C 2.140625 -3.0625 1.75 -3.40625 1.125 -3.40625 C 0.765625 -3.40625 0.515625 -3.3125 0.28125 -3.0625 L 0.1875 -2.390625 L 0.34375 -2.390625 L 0.40625 -2.625 C 0.484375 -2.90625 0.65625 -3.03125 0.984375 -3.03125 C 1.421875 -3.03125 1.6875 -2.765625 1.6875 -2.34375 C 1.6875 -1.96875 1.484375 -1.609375 0.921875 -1.015625 Z M 0.078125 -0.109375 "/>
</g>
<g id="glyph-4-2">
<path d="M 0.21875 -2.46875 L 0.359375 -2.46875 L 0.453125 -2.75 C 0.515625 -2.90625 0.828125 -3.078125 1.078125 -3.078125 C 1.40625 -3.078125 1.671875 -2.8125 1.671875 -2.5 C 1.671875 -2.140625 1.375 -1.828125 1.015625 -1.828125 C 0.984375 -1.828125 0.921875 -1.828125 0.859375 -1.828125 L 0.78125 -1.84375 L 0.734375 -1.578125 L 0.765625 -1.546875 C 0.953125 -1.625 1.046875 -1.65625 1.171875 -1.65625 C 1.59375 -1.65625 1.828125 -1.390625 1.828125 -0.9375 C 1.828125 -0.4375 1.53125 -0.109375 1.0625 -0.109375 C 0.84375 -0.109375 0.640625 -0.171875 0.484375 -0.3125 C 0.359375 -0.421875 0.296875 -0.546875 0.203125 -0.8125 L 0.078125 -0.765625 C 0.171875 -0.453125 0.21875 -0.28125 0.25 -0.03125 C 0.515625 0.0625 0.734375 0.09375 0.90625 0.09375 C 1.3125 0.09375 1.765625 -0.125 2.03125 -0.453125 C 2.203125 -0.65625 2.28125 -0.875 2.28125 -1.109375 C 2.28125 -1.34375 2.1875 -1.5625 2.015625 -1.671875 C 1.890625 -1.765625 1.765625 -1.8125 1.53125 -1.859375 C 1.921875 -2.15625 2.078125 -2.390625 2.078125 -2.671875 C 2.078125 -3.125 1.703125 -3.40625 1.15625 -3.40625 C 0.8125 -3.40625 0.59375 -3.3125 0.359375 -3.078125 Z M 0.21875 -2.46875 "/>
</g>
</g>
<clipPath id="clip-0">
<path clip-rule="nonzero" d="M 97 47 L 115.328125 47 L 115.328125 73 L 97 73 Z M 97 47 "/>
</clipPath>
<clipPath id="clip-1">
<path clip-rule="nonzero" d="M 0 0 L 114 0 L 114 115.328125 L 0 115.328125 Z M 0 0 "/>
</clipPath>
<clipPath id="clip-2">
<path clip-rule="nonzero" d="M 34 0 L 115.328125 0 L 115.328125 115.328125 L 34 115.328125 Z M 34 0 "/>
</clipPath>
</defs>
<path fill="none" stroke-width="0.3985" stroke-linecap="butt" stroke-linejoin="miter" stroke="rgb(54.902649%, 54.902649%, 54.902649%)" stroke-opacity="1" stroke-miterlimit="10" d="M -53.859013 -53.859123 L 53.858737 -53.859123 M -53.859013 -43.086561 L 53.858737 -43.086561 M -53.859013 -32.313999 L 53.858737 -32.313999 M -53.859013 -21.545371 L 53.858737 -21.545371 M -53.859013 -10.77281 L 53.858737 -10.77281 M -53.859013 -0.00024763 L 53.858737 -0.00024763 M -53.859013 10.772314 L 53.858737 10.772314 M -53.859013 21.544876 L 53.858737 21.544876 M -53.859013 32.317438 L 53.858737 32.317438 M -53.859013 43.086065 L 53.858737 43.086065 M -53.859013 53.850758 L 53.858737 53.850758 M -53.859013 -53.859123 L -53.859013 53.858627 M -43.086451 -53.859123 L -43.086451 53.858627 M -32.313889 -53.859123 L -32.313889 53.858627 M -21.545262 -53.859123 L -21.545262 53.858627 M -10.7727 -53.859123 L -10.7727 53.858627 M -0.000138265 -53.859123 L -0.000138265 53.858627 M 10.772424 -53.859123 L 10.772424 53.858627 M 21.544986 -53.859123 L 21.544986 53.858627 M 32.317547 -53.859123 L 32.317547 53.858627 M 43.086175 -53.859123 L 43.086175 53.858627 M 53.850868 -53.859123 L 53.850868 53.858627 " transform="matrix(0.992829, 0, 0, -0.992829, 55.500137, 59.827879)"/>
<path fill="none" stroke-width="0.79701" stroke-linecap="butt" stroke-linejoin="miter" stroke="rgb(0%, 0%, 0%)" stroke-opacity="1" stroke-miterlimit="10" d="M -53.859013 -0.00024763 L 54.669236 -0.00024763 " transform="matrix(0.992829, 0, 0, -0.992829, 55.500137, 59.827879)"/>
<path fill-rule="nonzero" fill="rgb(0%, 0%, 0%)" fill-opacity="1" d="M 112.125 59.828125 L 108.898438 58.605469 L 109.976562 59.828125 L 108.898438 61.050781 Z M 112.125 59.828125 "/>
<g clip-path="url(#clip-0)">
<path fill="none" stroke-width="0.79701" stroke-linecap="butt" stroke-linejoin="miter" stroke="rgb(0%, 0%, 0%)" stroke-opacity="1" stroke-miterlimit="10" d="M 4.534889 -0.00024763 L 1.285022 1.23124 L 2.370934 -0.00024763 L 1.285022 -1.231735 Z M 4.534889 -0.00024763 " transform="matrix(0.992829, 0, 0, -0.992829, 107.62263, 59.827879)"/>
</g>
<g fill="rgb(0%, 0%, 0%)" fill-opacity="1">
<use xlink:href="#glyph-0-0" x="104.575678" y="68.080274"/>
</g>
<path fill="none" stroke-width="0.79701" stroke-linecap="butt" stroke-linejoin="miter" stroke="rgb(0%, 0%, 0%)" stroke-opacity="1" stroke-miterlimit="10" d="M -0.000138265 -53.859123 L -0.000138265 54.669127 " transform="matrix(0.992829, 0, 0, -0.992829, 55.500137, 59.827879)"/>
<path fill-rule="nonzero" fill="rgb(0%, 0%, 0%)" fill-opacity="1" stroke-width="0.79701" stroke-linecap="butt" stroke-linejoin="miter" stroke="rgb(0%, 0%, 0%)" stroke-opacity="1" stroke-miterlimit="10" d="M 4.53478 0.000138265 L 1.288847 1.231625 L 2.370825 0.000138265 L 1.288847 -1.231349 Z M 4.53478 0.000138265 " transform="matrix(0, -0.992829, -0.992829, 0, 55.500137, 7.705386)"/>
<g fill="rgb(0%, 0%, 0%)" fill-opacity="1">
<use xlink:href="#glyph-0-1" x="46.933015" y="10.330386"/>
</g>
<g fill="rgb(0%, 0%, 0%)" fill-opacity="1">
<use xlink:href="#glyph-1-0" x="49.862854" y="66.9137"/>
</g>
<path fill="none" stroke-width="0.3985" stroke-linecap="butt" stroke-linejoin="miter" stroke="rgb(0%, 0%, 0%)" stroke-opacity="1" stroke-miterlimit="10" d="M -43.086451 0.755169 L -43.086451 -0.755665 " transform="matrix(0.992829, 0, 0, -0.992829, 55.500137, 59.827879)"/>
<g fill="rgb(0%, 0%, 0%)" fill-opacity="1">
<use xlink:href="#glyph-2-0" x="7.539544" y="67.781433"/>
</g>
<g fill="rgb(0%, 0%, 0%)" fill-opacity="1">
<use xlink:href="#glyph-1-1" x="14.047729" y="67.781433"/>
</g>
<path fill="none" stroke-width="0.3985" stroke-linecap="butt" stroke-linejoin="miter" stroke="rgb(0%, 0%, 0%)" stroke-opacity="1" stroke-miterlimit="10" d="M -32.313889 0.755169 L -32.313889 -0.755665 " transform="matrix(0.992829, 0, 0, -0.992829, 55.500137, 59.827879)"/>
<g fill="rgb(0%, 0%, 0%)" fill-opacity="1">
<use xlink:href="#glyph-2-0" x="18.234299" y="67.662293"/>
</g>
<g fill="rgb(0%, 0%, 0%)" fill-opacity="1">
<use xlink:href="#glyph-1-2" x="24.742484" y="67.662293"/>
</g>
<path fill="none" stroke-width="0.3985" stroke-linecap="butt" stroke-linejoin="miter" stroke="rgb(0%, 0%, 0%)" stroke-opacity="1" stroke-miterlimit="10" d="M -21.545262 0.755169 L -21.545262 -0.755665 " transform="matrix(0.992829, 0, 0, -0.992829, 55.500137, 59.827879)"/>
<g fill="rgb(0%, 0%, 0%)" fill-opacity="1">
<use xlink:href="#glyph-2-0" x="28.92806" y="67.662293"/>
</g>
<g fill="rgb(0%, 0%, 0%)" fill-opacity="1">
<use xlink:href="#glyph-1-3" x="35.436246" y="67.662293"/>
</g>
<path fill="none" stroke-width="0.3985" stroke-linecap="butt" stroke-linejoin="miter" stroke="rgb(0%, 0%, 0%)" stroke-opacity="1" stroke-miterlimit="10" d="M -10.7727 0.755169 L -10.7727 -0.755665 " transform="matrix(0.992829, 0, 0, -0.992829, 55.500137, 59.827879)"/>
<g fill="rgb(0%, 0%, 0%)" fill-opacity="1">
<use xlink:href="#glyph-2-0" x="39.622815" y="67.781433"/>
</g>
<g fill="rgb(0%, 0%, 0%)" fill-opacity="1">
<use xlink:href="#glyph-1-4" x="46.131" y="67.781433"/>
</g>
<path fill="none" stroke-width="0.3985" stroke-linecap="butt" stroke-linejoin="miter" stroke="rgb(0%, 0%, 0%)" stroke-opacity="1" stroke-miterlimit="10" d="M 10.772424 0.755169 L 10.772424 -0.755665 " transform="matrix(0.992829, 0, 0, -0.992829, 55.500137, 59.827879)"/>
<g fill="rgb(0%, 0%, 0%)" fill-opacity="1">
<use xlink:href="#glyph-1-4" x="64.217176" y="67.781433"/>
</g>
<path fill="none" stroke-width="0.3985" stroke-linecap="butt" stroke-linejoin="miter" stroke="rgb(0%, 0%, 0%)" stroke-opacity="1" stroke-miterlimit="10" d="M 21.544986 0.755169 L 21.544986 -0.755665 " transform="matrix(0.992829, 0, 0, -0.992829, 55.500137, 59.827879)"/>
<g fill="rgb(0%, 0%, 0%)" fill-opacity="1">
<use xlink:href="#glyph-1-3" x="74.910938" y="67.662293"/>
</g>
<path fill="none" stroke-width="0.3985" stroke-linecap="butt" stroke-linejoin="miter" stroke="rgb(0%, 0%, 0%)" stroke-opacity="1" stroke-miterlimit="10" d="M 32.317547 0.755169 L 32.317547 -0.755665 " transform="matrix(0.992829, 0, 0, -0.992829, 55.500137, 59.827879)"/>
<g fill="rgb(0%, 0%, 0%)" fill-opacity="1">
<use xlink:href="#glyph-1-2" x="85.605693" y="67.662293"/>
</g>
<path fill="none" stroke-width="0.3985" stroke-linecap="butt" stroke-linejoin="miter" stroke="rgb(0%, 0%, 0%)" stroke-opacity="1" stroke-miterlimit="10" d="M 43.086175 0.755169 L 43.086175 -0.755665 " transform="matrix(0.992829, 0, 0, -0.992829, 55.500137, 59.827879)"/>
<g fill="rgb(0%, 0%, 0%)" fill-opacity="1">
<use xlink:href="#glyph-1-1" x="96.300447" y="67.781433"/>
</g>
<path fill="none" stroke-width="0.3985" stroke-linecap="butt" stroke-linejoin="miter" stroke="rgb(0%, 0%, 0%)" stroke-opacity="1" stroke-miterlimit="10" d="M 0.755279 -43.086561 L -0.755555 -43.086561 " transform="matrix(0.992829, 0, 0, -0.992829, 55.500137, 59.827879)"/>
<g fill="rgb(0%, 0%, 0%)" fill-opacity="1">
<use xlink:href="#glyph-2-0" x="42.605273" y="105.027415"/>
</g>
<g fill="rgb(0%, 0%, 0%)" fill-opacity="1">
<use xlink:href="#glyph-1-1" x="49.113459" y="105.027415"/>
</g>
<path fill="none" stroke-width="0.3985" stroke-linecap="butt" stroke-linejoin="miter" stroke="rgb(0%, 0%, 0%)" stroke-opacity="1" stroke-miterlimit="10" d="M 0.755279 -32.313999 L -0.755555 -32.313999 " transform="matrix(0.992829, 0, 0, -0.992829, 55.500137, 59.827879)"/>
<g fill="rgb(0%, 0%, 0%)" fill-opacity="1">
<use xlink:href="#glyph-2-0" x="42.605273" y="94.273091"/>
</g>
<g fill="rgb(0%, 0%, 0%)" fill-opacity="1">
<use xlink:href="#glyph-1-2" x="49.113459" y="94.273091"/>
</g>
<path fill="none" stroke-width="0.3985" stroke-linecap="butt" stroke-linejoin="miter" stroke="rgb(0%, 0%, 0%)" stroke-opacity="1" stroke-miterlimit="10" d="M 0.755279 -21.545371 L -0.755555 -21.545371 " transform="matrix(0.992829, 0, 0, -0.992829, 55.500137, 59.827879)"/>
<g fill="rgb(0%, 0%, 0%)" fill-opacity="1">
<use xlink:href="#glyph-2-0" x="42.605273" y="83.578336"/>
</g>
<g fill="rgb(0%, 0%, 0%)" fill-opacity="1">
<use xlink:href="#glyph-1-3" x="49.113459" y="83.578336"/>
</g>
<path fill="none" stroke-width="0.3985" stroke-linecap="butt" stroke-linejoin="miter" stroke="rgb(0%, 0%, 0%)" stroke-opacity="1" stroke-miterlimit="10" d="M 0.755279 -10.77281 L -0.755555 -10.77281 " transform="matrix(0.992829, 0, 0, -0.992829, 55.500137, 59.827879)"/>
<g fill="rgb(0%, 0%, 0%)" fill-opacity="1">
<use xlink:href="#glyph-2-0" x="42.605273" y="72.943151"/>
</g>
<g fill="rgb(0%, 0%, 0%)" fill-opacity="1">
<use xlink:href="#glyph-1-4" x="49.113459" y="72.943151"/>
</g>
<path fill="none" stroke-width="0.3985" stroke-linecap="butt" stroke-linejoin="miter" stroke="rgb(0%, 0%, 0%)" stroke-opacity="1" stroke-miterlimit="10" d="M 0.755279 10.772314 L -0.755555 10.772314 " transform="matrix(0.992829, 0, 0, -0.992829, 55.500137, 59.827879)"/>
<g fill="rgb(0%, 0%, 0%)" fill-opacity="1">
<use xlink:href="#glyph-1-4" x="49.113268" y="51.871347"/>
</g>
<path fill="none" stroke-width="0.3985" stroke-linecap="butt" stroke-linejoin="miter" stroke="rgb(0%, 0%, 0%)" stroke-opacity="1" stroke-miterlimit="10" d="M 0.755279 21.544876 L -0.755555 21.544876 " transform="matrix(0.992829, 0, 0, -0.992829, 55.500137, 59.827879)"/>
<g fill="rgb(0%, 0%, 0%)" fill-opacity="1">
<use xlink:href="#glyph-1-3" x="49.113268" y="41.117023"/>
</g>
<path fill="none" stroke-width="0.3985" stroke-linecap="butt" stroke-linejoin="miter" stroke="rgb(0%, 0%, 0%)" stroke-opacity="1" stroke-miterlimit="10" d="M 0.755279 32.317438 L -0.755555 32.317438 " transform="matrix(0.992829, 0, 0, -0.992829, 55.500137, 59.827879)"/>
<g fill="rgb(0%, 0%, 0%)" fill-opacity="1">
<use xlink:href="#glyph-1-2" x="49.113268" y="30.382555"/>
</g>
<path fill="none" stroke-width="0.3985" stroke-linecap="butt" stroke-linejoin="miter" stroke="rgb(0%, 0%, 0%)" stroke-opacity="1" stroke-miterlimit="10" d="M 0.755279 43.086065 L -0.755555 43.086065 " transform="matrix(0.992829, 0, 0, -0.992829, 55.500137, 59.827879)"/>
<g fill="rgb(0%, 0%, 0%)" fill-opacity="1">
<use xlink:href="#glyph-1-1" x="49.113268" y="19.787083"/>
</g>
<g clip-path="url(#clip-1)">
<path fill="none" stroke-width="1.0959" stroke-linecap="butt" stroke-linejoin="miter" stroke="rgb(75.292969%, 22.3526%, 16.862488%)" stroke-opacity="1" stroke-miterlimit="10" d="M -53.859013 -43.086561 L 43.086175 53.858627 " transform="matrix(0.992829, 0, 0, -0.992829, 55.500137, 59.827879)"/>
</g>
<g clip-path="url(#clip-2)">
<path fill="none" stroke-width="1.0959" stroke-linecap="butt" stroke-linejoin="miter" stroke="rgb(12.156677%, 30.587769%, 47.451782%)" stroke-opacity="1" stroke-miterlimit="10" d="M -5.386419 53.858627 L 48.472456 -53.859123 " transform="matrix(0.992829, 0, 0, -0.992829, 55.500137, 59.827879)"/>
</g>
<path fill="none" stroke-width="1.0959" stroke-linecap="butt" stroke-linejoin="miter" stroke="rgb(18.03894%, 49.01886%, 19.607544%)" stroke-opacity="1" stroke-miterlimit="10" d="M -53.859013 32.317438 L 53.858737 32.317438 " transform="matrix(0.992829, 0, 0, -0.992829, 55.500137, 59.827879)"/>
<path fill="none" stroke-width="0.59776" stroke-linecap="butt" stroke-linejoin="miter" stroke="rgb(75.292969%, 22.3526%, 16.862488%)" stroke-opacity="1" stroke-miterlimit="10" d="M -2.289996 8.478522 L 2.28972 13.062172 M -2.289996 13.062172 L 2.28972 8.478522 " transform="matrix(0.992829, 0, 0, -0.992829, 55.500137, 59.827879)"/>
<path fill="none" stroke-width="0.59776" stroke-linecap="butt" stroke-linejoin="miter" stroke="rgb(75.292969%, 22.3526%, 16.862488%)" stroke-opacity="1" stroke-miterlimit="10" d="M -13.062558 -2.290106 L -8.478908 2.28961 M -13.062558 2.28961 L -8.478908 -2.290106 " transform="matrix(0.992829, 0, 0, -0.992829, 55.500137, 59.827879)"/>
<path fill="none" stroke-width="0.59776" stroke-linecap="butt" stroke-linejoin="miter" stroke="rgb(12.156677%, 30.587769%, 47.451782%)" stroke-opacity="1" stroke-miterlimit="10" d="M -2.289996 40.796208 L 2.28972 45.379858 M -2.289996 45.379858 L 2.28972 40.796208 " transform="matrix(0.992829, 0, 0, -0.992829, 55.500137, 59.827879)"/>
<path fill="none" stroke-width="0.59776" stroke-linecap="butt" stroke-linejoin="miter" stroke="rgb(12.156677%, 30.587769%, 47.451782%)" stroke-opacity="1" stroke-miterlimit="10" d="M 19.251193 -2.290106 L 23.834843 2.28961 M 19.251193 2.28961 L 23.834843 -2.290106 " transform="matrix(0.992829, 0, 0, -0.992829, 55.500137, 59.827879)"/>
<g fill="rgb(75.292969%, 22.3526%, 16.862488%)" fill-opacity="1">
<use xlink:href="#glyph-3-0" x="6.874348" y="88.052024"/>
</g>
<g fill="rgb(75.292969%, 22.3526%, 16.862488%)" fill-opacity="1">
<use xlink:href="#glyph-4-0" x="11.436398" y="89.387379"/>
</g>
<g fill="rgb(12.156677%, 30.587769%, 47.451782%)" fill-opacity="1">
<use xlink:href="#glyph-3-0" x="100.985608" y="100.886325"/>
</g>
<g fill="rgb(12.156677%, 30.587769%, 47.451782%)" fill-opacity="1">
<use xlink:href="#glyph-4-1" x="105.54865" y="102.22168"/>
</g>
<g fill="rgb(18.03894%, 49.01886%, 19.607544%)" fill-opacity="1">
<use xlink:href="#glyph-3-0" x="6.874348" y="22.791384"/>
</g>
<g fill="rgb(18.03894%, 49.01886%, 19.607544%)" fill-opacity="1">
<use xlink:href="#glyph-4-2" x="11.436398" y="24.126739"/>
</g>
</svg>
