<?xml version="1.0" encoding="UTF-8"?>
<svg xmlns="http://www.w3.org/2000/svg" xmlns:xlink="http://www.w3.org/1999/xlink" width="133.243" height="99.228" viewBox="0 0 133.243 99.228">
<defs>
<g>
<g id="glyph-0-0">
<path d="M 0.203125 -0.875 C 0.203125 -0.671875 0.1875 -0.546875 0.125 -0.234375 C 0.109375 -0.109375 0.09375 -0.078125 0.09375 -0.015625 C 0.234375 0.0625 0.390625 0.109375 0.515625 0.109375 C 0.84375 0.109375 1.21875 -0.171875 1.53125 -0.640625 L 2.28125 -1.796875 L 2.390625 -1.125 C 2.515625 -0.28125 2.75 0.109375 3.109375 0.109375 C 3.328125 0.109375 3.640625 -0.0625 3.953125 -0.34375 L 4.4375 -0.78125 L 4.359375 -0.96875 C 4 -0.671875 3.75 -0.53125 3.59375 -0.53125 C 3.4375 -0.53125 3.3125 -0.625 3.21875 -0.828125 C 3.125 -1.015625 3.015625 -1.375 2.96875 -1.65625 L 2.796875 -2.65625 L 3.140625 -3.140625 C 3.59375 -3.78125 3.875 -4.015625 4.171875 -4.015625 C 4.328125 -4.015625 4.453125 -3.9375 4.5 -3.78125 L 4.640625 -3.828125 L 4.78125 -4.671875 C 4.671875 -4.734375 4.578125 -4.765625 4.484375 -4.765625 C 4.09375 -4.765625 3.703125 -4.40625 3.078125 -3.5 L 2.71875 -2.953125 L 2.65625 -3.4375 C 2.546875 -4.40625 2.28125 -4.765625 1.6875 -4.765625 C 1.4375 -4.765625 1.21875 -4.6875 1.125 -4.5625 L 0.546875 -3.734375 L 0.71875 -3.640625 C 1.015625 -3.96875 1.21875 -4.109375 1.40625 -4.109375 C 1.734375 -4.109375 1.953125 -3.703125 2.109375 -2.734375 L 2.21875 -2.125 L 1.828125 -1.515625 C 1.40625 -0.84375 1.0625 -0.53125 0.796875 -0.53125 C 0.640625 -0.53125 0.53125 -0.578125 0.515625 -0.625 L 0.40625 -0.90625 Z M 0.203125 -0.875 "/>
</g>
<g id="glyph-0-1">
<path d="M -0.0625 1.78125 C -0.078125 1.84375 -0.078125 1.90625 -0.078125 1.953125 C -0.078125 2.390625 0.28125 2.734375 0.734375 2.734375 C 1.78125 2.734375 2.875 1.5 3.453125 -0.328125 L 4.84375 -4.671875 L 4.734375 -4.765625 C 4.453125 -4.65625 4.21875 -4.59375 4 -4.578125 L 3.65625 -3.28125 C 3.546875 -2.8125 3.1875 -2.09375 2.875 -1.609375 C 2.515625 -1.09375 2.03125 -0.65625 1.8125 -0.65625 C 1.703125 -0.65625 1.609375 -0.890625 1.625 -1.140625 L 1.625 -1.265625 L 1.78125 -3.1875 C 1.796875 -3.484375 1.8125 -3.875 1.8125 -4.140625 C 1.8125 -4.59375 1.75 -4.765625 1.578125 -4.765625 C 1.453125 -4.765625 1.3125 -4.703125 0.84375 -4.375 L 0.03125 -3.8125 L 0.140625 -3.640625 L 0.640625 -3.9375 L 0.671875 -3.96875 C 0.765625 -4.03125 0.84375 -4.0625 0.875 -4.0625 C 1.015625 -4.0625 1.09375 -3.875 1.09375 -3.546875 C 1.09375 -3.53125 1.09375 -3.46875 1.09375 -3.390625 L 0.921875 -0.984375 L 0.90625 -0.59375 C 0.90625 -0.171875 1.09375 0.109375 1.328125 0.109375 C 1.703125 0.109375 2.53125 -0.734375 3.28125 -1.84375 L 2.796875 -0.15625 C 2.28125 1.59375 1.796875 2.3125 1.09375 2.3125 C 0.75 2.3125 0.484375 2.046875 0.484375 1.703125 C 0.484375 1.65625 0.5 1.578125 0.5 1.484375 L 0.40625 1.4375 Z M -0.0625 1.78125 "/>
</g>
<g id="glyph-1-0">
<path d="M 1.828125 -4.765625 C 0.75 -4.765625 0.203125 -3.921875 0.203125 -2.25 C 0.203125 -1.4375 0.34375 -0.734375 0.59375 -0.390625 C 0.828125 -0.0625 1.21875 0.140625 1.640625 0.140625 C 2.6875 0.140625 3.21875 -0.765625 3.21875 -2.53125 C 3.21875 -4.046875 2.765625 -4.765625 1.828125 -4.765625 Z M 1.703125 -4.53125 C 2.375 -4.53125 2.640625 -3.84375 2.640625 -2.1875 C 2.640625 -0.71875 2.375 -0.109375 1.734375 -0.109375 C 1.0625 -0.109375 0.78125 -0.796875 0.78125 -2.484375 C 0.78125 -3.953125 1.03125 -4.53125 1.703125 -4.53125 Z M 1.703125 -4.53125 "/>
</g>
<g id="glyph-1-1">
<path d="M 1.9375 -1.25 L 1.9375 -0.734375 C 1.9375 -0.3125 1.859375 -0.21875 1.515625 -0.203125 L 1.09375 -0.1875 L 1.09375 0.015625 C 2.015625 0 2.015625 0 2.1875 0 C 2.34375 0 2.34375 0 3.265625 0.015625 L 3.265625 -0.1875 L 2.9375 -0.203125 C 2.59375 -0.234375 2.515625 -0.3125 2.515625 -0.734375 L 2.515625 -1.25 C 2.921875 -1.25 3.078125 -1.25 3.265625 -1.21875 L 3.265625 -1.71875 C 2.9375 -1.6875 2.8125 -1.6875 2.703125 -1.703125 L 2.515625 -1.703125 L 2.515625 -2.65625 C 2.515625 -3.890625 2.53125 -4.484375 2.5625 -4.765625 L 2.484375 -4.796875 L 1.96875 -4.609375 L 0.015625 -1.40625 L 0.09375 -1.25 Z M 1.9375 -1.703125 L 0.453125 -1.703125 L 1.9375 -4.125 Z M 1.9375 -1.703125 "/>
</g>
<g id="glyph-1-2">
<path d="M 0.296875 -3.453125 L 0.515625 -3.453125 L 0.640625 -3.828125 C 0.71875 -4.0625 1.15625 -4.3125 1.515625 -4.3125 C 1.953125 -4.3125 2.328125 -3.9375 2.328125 -3.5 C 2.328125 -2.984375 1.921875 -2.546875 1.421875 -2.546875 C 1.375 -2.546875 1.296875 -2.546875 1.203125 -2.5625 L 1.09375 -2.5625 L 1.015625 -2.203125 L 1.0625 -2.15625 C 1.328125 -2.28125 1.453125 -2.3125 1.640625 -2.3125 C 2.21875 -2.3125 2.546875 -1.9375 2.546875 -1.3125 C 2.546875 -0.609375 2.125 -0.140625 1.484375 -0.140625 C 1.171875 -0.140625 0.890625 -0.25 0.671875 -0.4375 C 0.515625 -0.59375 0.421875 -0.75 0.296875 -1.125 L 0.109375 -1.0625 C 0.25 -0.640625 0.296875 -0.390625 0.34375 -0.046875 C 0.71875 0.078125 1.015625 0.140625 1.28125 0.140625 C 1.828125 0.140625 2.46875 -0.171875 2.84375 -0.640625 C 3.078125 -0.921875 3.203125 -1.21875 3.203125 -1.546875 C 3.203125 -1.875 3.0625 -2.171875 2.8125 -2.34375 C 2.640625 -2.46875 2.484375 -2.53125 2.125 -2.59375 C 2.6875 -3.015625 2.890625 -3.34375 2.890625 -3.75 C 2.890625 -4.359375 2.375 -4.765625 1.609375 -4.765625 C 1.140625 -4.765625 0.828125 -4.640625 0.5 -4.3125 Z M 0.296875 -3.453125 "/>
</g>
<g id="glyph-1-3">
<path d="M 0.109375 -0.15625 L 0.109375 0.015625 C 1.40625 0 1.40625 0 1.65625 0 C 1.90625 0 1.90625 0 3.234375 0.015625 C 3.21875 -0.125 3.21875 -0.1875 3.21875 -0.296875 C 3.21875 -0.375 3.21875 -0.453125 3.234375 -0.609375 C 2.4375 -0.5625 2.125 -0.5625 0.84375 -0.53125 L 2.109375 -1.875 C 2.78125 -2.578125 2.984375 -2.96875 2.984375 -3.484375 C 2.984375 -4.28125 2.4375 -4.765625 1.5625 -4.765625 C 1.0625 -4.765625 0.734375 -4.625 0.390625 -4.28125 L 0.265625 -3.34375 L 0.46875 -3.34375 L 0.5625 -3.65625 C 0.671875 -4.0625 0.921875 -4.234375 1.390625 -4.234375 C 1.984375 -4.234375 2.359375 -3.859375 2.359375 -3.28125 C 2.359375 -2.75 2.0625 -2.25 1.28125 -1.40625 Z M 0.109375 -0.15625 "/>
</g>
<g id="glyph-1-4">
<path d="M 0.46875 -3.84375 L 0.53125 -3.84375 L 1.421875 -4.25 C 1.4375 -4.25 1.4375 -4.25 1.453125 -4.25 C 1.484375 -4.25 1.5 -4.1875 1.5 -4.015625 L 1.5 -0.671875 C 1.5 -0.296875 1.421875 -0.234375 1.046875 -0.203125 L 0.671875 -0.1875 L 0.671875 0.015625 C 1.734375 0 1.734375 0 1.8125 0 C 1.890625 0 2.046875 0 2.28125 0 C 2.375 0.015625 2.609375 0.015625 2.890625 0.015625 L 2.890625 -0.1875 L 2.53125 -0.203125 C 2.15625 -0.234375 2.078125 -0.296875 2.078125 -0.671875 L 2.078125 -4.765625 L 1.984375 -4.796875 C 1.53125 -4.5625 1.046875 -4.359375 0.421875 -4.140625 Z M 0.46875 -3.84375 "/>
</g>
<g id="glyph-1-5">
<path d="M 0.875 -4.1875 C 1.765625 -4.15625 2.15625 -4.15625 2.984375 -4.15625 L 3.03125 -4.1875 C 3.015625 -4.3125 3.015625 -4.375 3.015625 -4.453125 C 3.015625 -4.546875 3.015625 -4.609375 3.03125 -4.734375 L 2.984375 -4.765625 C 2.46875 -4.734375 2.15625 -4.734375 1.78125 -4.734375 C 1.40625 -4.734375 1.09375 -4.734375 0.578125 -4.765625 L 0.546875 -4.734375 C 0.546875 -4.3125 0.5625 -4 0.5625 -3.78125 C 0.5625 -3.203125 0.546875 -2.53125 0.515625 -2.234375 L 0.65625 -2.1875 C 0.984375 -2.515625 1.171875 -2.609375 1.515625 -2.609375 C 2.171875 -2.609375 2.59375 -2.140625 2.59375 -1.390625 C 2.59375 -0.625 2.140625 -0.171875 1.390625 -0.171875 C 1.015625 -0.171875 0.671875 -0.296875 0.578125 -0.484375 L 0.25 -1.046875 L 0.09375 -0.953125 C 0.25 -0.546875 0.328125 -0.328125 0.421875 -0.03125 C 0.625 0.078125 0.90625 0.140625 1.203125 0.140625 C 1.65625 0.140625 2.15625 -0.0625 2.53125 -0.390625 C 2.953125 -0.765625 3.171875 -1.234375 3.171875 -1.75 C 3.171875 -2.53125 2.609375 -3.09375 1.828125 -3.09375 C 1.5 -3.09375 1.25 -3 0.8125 -2.734375 Z M 0.875 -4.1875 "/>
</g>
<g id="glyph-2-0">
<path d="M 4.75 -1.65625 C 4.875 -1.65625 5 -1.65625 5 -1.796875 C 5 -1.9375 4.875 -1.9375 4.75 -1.9375 L 0.84375 -1.9375 C 0.734375 -1.9375 0.59375 -1.9375 0.59375 -1.796875 C 0.59375 -1.65625 0.734375 -1.65625 0.84375 -1.65625 Z M 4.75 -1.65625 "/>
</g>
</g>
<clipPath id="clip-0">
<path clip-rule="nonzero" d="M 114 39 L 132.351562 39 L 132.351562 64 L 114 64 Z M 114 39 "/>
</clipPath>
<clipPath id="clip-1">
<path clip-rule="nonzero" d="M 0.140625 3 L 129 3 L 129 98.460938 L 0.140625 98.460938 Z M 0.140625 3 "/>
</clipPath>
</defs>
<path fill="none" stroke-width="0.3985" stroke-linecap="butt" stroke-linejoin="miter" stroke="rgb(54.902649%, 54.902649%, 54.902649%)" stroke-opacity="1" stroke-miterlimit="10" d="M -56.693513 -45.352445 L 68.03108 -45.352445 M -56.693513 -34.01492 L 68.03108 -34.01492 M -56.693513 -22.677394 L 68.03108 -22.677394 M -56.693513 -11.339868 L 68.03108 -11.339868 M -56.693513 0.00159399 L 68.03108 0.00159399 M -56.693513 11.33912 L 68.03108 11.33912 M -56.693513 22.676645 L 68.03108 22.676645 M -56.693513 34.014171 L 68.03108 34.014171 M -56.693513 45.343823 L 68.03108 45.343823 M -56.693513 -45.352445 L -56.693513 45.355633 M -45.355987 -45.352445 L -45.355987 45.355633 M -34.014525 -45.352445 L -34.014525 45.355633 M -22.676999 -45.352445 L -22.676999 45.355633 M -11.339473 -45.352445 L -11.339473 45.355633 M -0.00194759 -45.352445 L -0.00194759 45.355633 M 11.339515 -45.352445 L 11.339515 45.355633 M 22.67704 -45.352445 L 22.67704 45.355633 M 34.014566 -45.352445 L 34.014566 45.355633 M 45.356028 -45.352445 L 45.356028 45.355633 M 56.693554 -45.352445 L 56.693554 45.355633 M 68.023207 -45.352445 L 68.023207 45.355633 " transform="matrix(0.99228, 0, 0, -0.99228, 58.271464, 51.579707)"/>
<path fill="none" stroke-width="0.79701" stroke-linecap="butt" stroke-linejoin="miter" stroke="rgb(0%, 0%, 0%)" stroke-opacity="1" stroke-miterlimit="10" d="M -56.693513 0.00159399 L 69.066416 0.00159399 " transform="matrix(0.99228, 0, 0, -0.99228, 58.271464, 51.579707)"/>
<path fill-rule="nonzero" fill="rgb(0%, 0%, 0%)" fill-opacity="1" d="M 129.152344 51.578125 L 125.929688 50.359375 L 127.003906 51.578125 L 125.929688 52.800781 Z M 129.152344 51.578125 "/>
<g clip-path="url(#clip-0)">
<path fill="none" stroke-width="0.79701" stroke-linecap="butt" stroke-linejoin="miter" stroke="rgb(0%, 0%, 0%)" stroke-opacity="1" stroke-miterlimit="10" d="M 4.535058 0.00159399 L 1.287329 1.229826 L 2.369905 0.00159399 L 1.287329 -1.230575 Z M 4.535058 0.00159399 " transform="matrix(0.99228, 0, 0, -0.99228, 124.652297, 51.579707)"/>
</g>
<g fill="rgb(0%, 0%, 0%)" fill-opacity="1">
<use xlink:href="#glyph-0-0" x="122.409466" y="59.061498"/>
</g>
<path fill="none" stroke-width="0.79701" stroke-linecap="butt" stroke-linejoin="miter" stroke="rgb(0%, 0%, 0%)" stroke-opacity="1" stroke-miterlimit="10" d="M -0.00194759 -45.352445 L -0.00194759 46.39097 " transform="matrix(0.99228, 0, 0, -0.99228, 58.271464, 51.579707)"/>
<path fill-rule="nonzero" fill="rgb(0%, 0%, 0%)" fill-opacity="1" stroke-width="0.79701" stroke-linecap="butt" stroke-linejoin="miter" stroke="rgb(0%, 0%, 0%)" stroke-opacity="1" stroke-miterlimit="10" d="M 4.532784 0.00194759 L 1.285056 1.23018 L 2.371569 0.00194759 L 1.285056 -1.230221 Z M 4.532784 0.00194759 " transform="matrix(0, -0.99228, -0.99228, 0, 58.271464, 7.700916)"/>
<g fill="rgb(0%, 0%, 0%)" fill-opacity="1">
<use xlink:href="#glyph-0-1" x="50.502904" y="9.557641"/>
</g>
<g fill="rgb(0%, 0%, 0%)" fill-opacity="1">
<use xlink:href="#glyph-1-0" x="53.130461" y="57.986859"/>
</g>
<path fill="none" stroke-width="0.3985" stroke-linecap="butt" stroke-linejoin="miter" stroke="rgb(0%, 0%, 0%)" stroke-opacity="1" stroke-miterlimit="10" d="M -45.355987 0.792859 L -45.355987 -0.793607 " transform="matrix(0.99228, 0, 0, -0.99228, 58.271464, 51.579707)"/>
<g fill="rgb(0%, 0%, 0%)" fill-opacity="1">
<use xlink:href="#glyph-2-0" x="8.734862" y="58.878918"/>
</g>
<g fill="rgb(0%, 0%, 0%)" fill-opacity="1">
<use xlink:href="#glyph-1-1" x="14.426307" y="58.878918"/>
</g>
<path fill="none" stroke-width="0.3985" stroke-linecap="butt" stroke-linejoin="miter" stroke="rgb(0%, 0%, 0%)" stroke-opacity="1" stroke-miterlimit="10" d="M -34.014525 0.792859 L -34.014525 -0.793607 " transform="matrix(0.99228, 0, 0, -0.99228, 58.271464, 51.579707)"/>
<g fill="rgb(0%, 0%, 0%)" fill-opacity="1">
<use xlink:href="#glyph-2-0" x="19.986325" y="58.774729"/>
</g>
<g fill="rgb(0%, 0%, 0%)" fill-opacity="1">
<use xlink:href="#glyph-1-2" x="25.67777" y="58.774729"/>
</g>
<path fill="none" stroke-width="0.3985" stroke-linecap="butt" stroke-linejoin="miter" stroke="rgb(0%, 0%, 0%)" stroke-opacity="1" stroke-miterlimit="10" d="M -22.676999 0.792859 L -22.676999 -0.793607 " transform="matrix(0.99228, 0, 0, -0.99228, 58.271464, 51.579707)"/>
<g fill="rgb(0%, 0%, 0%)" fill-opacity="1">
<use xlink:href="#glyph-2-0" x="31.236795" y="58.774729"/>
</g>
<g fill="rgb(0%, 0%, 0%)" fill-opacity="1">
<use xlink:href="#glyph-1-3" x="36.92824" y="58.774729"/>
</g>
<path fill="none" stroke-width="0.3985" stroke-linecap="butt" stroke-linejoin="miter" stroke="rgb(0%, 0%, 0%)" stroke-opacity="1" stroke-miterlimit="10" d="M -11.339473 0.792859 L -11.339473 -0.793607 " transform="matrix(0.99228, 0, 0, -0.99228, 58.271464, 51.579707)"/>
<g fill="rgb(0%, 0%, 0%)" fill-opacity="1">
<use xlink:href="#glyph-2-0" x="42.488258" y="58.878918"/>
</g>
<g fill="rgb(0%, 0%, 0%)" fill-opacity="1">
<use xlink:href="#glyph-1-4" x="48.179703" y="58.878918"/>
</g>
<path fill="none" stroke-width="0.3985" stroke-linecap="butt" stroke-linejoin="miter" stroke="rgb(0%, 0%, 0%)" stroke-opacity="1" stroke-miterlimit="10" d="M 11.339515 0.792859 L 11.339515 -0.793607 " transform="matrix(0.99228, 0, 0, -0.99228, 58.271464, 51.579707)"/>
<g fill="rgb(0%, 0%, 0%)" fill-opacity="1">
<use xlink:href="#glyph-1-4" x="67.79239" y="58.877926"/>
</g>
<path fill="none" stroke-width="0.3985" stroke-linecap="butt" stroke-linejoin="miter" stroke="rgb(0%, 0%, 0%)" stroke-opacity="1" stroke-miterlimit="10" d="M 22.67704 0.792859 L 22.67704 -0.793607 " transform="matrix(0.99228, 0, 0, -0.99228, 58.271464, 51.579707)"/>
<g fill="rgb(0%, 0%, 0%)" fill-opacity="1">
<use xlink:href="#glyph-1-3" x="79.042861" y="58.773737"/>
</g>
<path fill="none" stroke-width="0.3985" stroke-linecap="butt" stroke-linejoin="miter" stroke="rgb(0%, 0%, 0%)" stroke-opacity="1" stroke-miterlimit="10" d="M 34.014566 0.792859 L 34.014566 -0.793607 " transform="matrix(0.99228, 0, 0, -0.99228, 58.271464, 51.579707)"/>
<g fill="rgb(0%, 0%, 0%)" fill-opacity="1">
<use xlink:href="#glyph-1-2" x="90.294324" y="58.773737"/>
</g>
<path fill="none" stroke-width="0.3985" stroke-linecap="butt" stroke-linejoin="miter" stroke="rgb(0%, 0%, 0%)" stroke-opacity="1" stroke-miterlimit="10" d="M 45.356028 0.792859 L 45.356028 -0.793607 " transform="matrix(0.99228, 0, 0, -0.99228, 58.271464, 51.579707)"/>
<g fill="rgb(0%, 0%, 0%)" fill-opacity="1">
<use xlink:href="#glyph-1-1" x="101.544795" y="58.877926"/>
</g>
<path fill="none" stroke-width="0.3985" stroke-linecap="butt" stroke-linejoin="miter" stroke="rgb(0%, 0%, 0%)" stroke-opacity="1" stroke-miterlimit="10" d="M 56.693554 0.792859 L 56.693554 -0.793607 " transform="matrix(0.99228, 0, 0, -0.99228, 58.271464, 51.579707)"/>
<g fill="rgb(0%, 0%, 0%)" fill-opacity="1">
<use xlink:href="#glyph-1-5" x="112.795265" y="58.773737"/>
</g>
<path fill="none" stroke-width="0.3985" stroke-linecap="butt" stroke-linejoin="miter" stroke="rgb(0%, 0%, 0%)" stroke-opacity="1" stroke-miterlimit="10" d="M 0.793254 -34.01492 L -0.793212 -34.01492 " transform="matrix(0.99228, 0, 0, -0.99228, 58.271464, 51.579707)"/>
<g fill="rgb(0%, 0%, 0%)" fill-opacity="1">
<use xlink:href="#glyph-2-0" x="46.651865" y="87.397046"/>
</g>
<g fill="rgb(0%, 0%, 0%)" fill-opacity="1">
<use xlink:href="#glyph-1-2" x="52.34331" y="87.397046"/>
</g>
<path fill="none" stroke-width="0.3985" stroke-linecap="butt" stroke-linejoin="miter" stroke="rgb(0%, 0%, 0%)" stroke-opacity="1" stroke-miterlimit="10" d="M 0.793254 -22.677394 L -0.793212 -22.677394 " transform="matrix(0.99228, 0, 0, -0.99228, 58.271464, 51.579707)"/>
<g fill="rgb(0%, 0%, 0%)" fill-opacity="1">
<use xlink:href="#glyph-2-0" x="46.651865" y="76.146575"/>
</g>
<g fill="rgb(0%, 0%, 0%)" fill-opacity="1">
<use xlink:href="#glyph-1-3" x="52.34331" y="76.146575"/>
</g>
<path fill="none" stroke-width="0.3985" stroke-linecap="butt" stroke-linejoin="miter" stroke="rgb(0%, 0%, 0%)" stroke-opacity="1" stroke-miterlimit="10" d="M 0.793254 -11.339868 L -0.793212 -11.339868 " transform="matrix(0.99228, 0, 0, -0.99228, 58.271464, 51.579707)"/>
<g fill="rgb(0%, 0%, 0%)" fill-opacity="1">
<use xlink:href="#glyph-2-0" x="46.651865" y="64.947703"/>
</g>
<g fill="rgb(0%, 0%, 0%)" fill-opacity="1">
<use xlink:href="#glyph-1-4" x="52.34331" y="64.947703"/>
</g>
<path fill="none" stroke-width="0.3985" stroke-linecap="butt" stroke-linejoin="miter" stroke="rgb(0%, 0%, 0%)" stroke-opacity="1" stroke-miterlimit="10" d="M 0.793254 11.33912 L -0.793212 11.33912 " transform="matrix(0.99228, 0, 0, -0.99228, 58.271464, 51.579707)"/>
<g fill="rgb(0%, 0%, 0%)" fill-opacity="1">
<use xlink:href="#glyph-1-4" x="52.343583" y="42.722615"/>
</g>
<path fill="none" stroke-width="0.3985" stroke-linecap="butt" stroke-linejoin="miter" stroke="rgb(0%, 0%, 0%)" stroke-opacity="1" stroke-miterlimit="10" d="M 0.793254 22.676645 L -0.793212 22.676645 " transform="matrix(0.99228, 0, 0, -0.99228, 58.271464, 51.579707)"/>
<g fill="rgb(0%, 0%, 0%)" fill-opacity="1">
<use xlink:href="#glyph-1-3" x="52.343583" y="31.419554"/>
</g>
<path fill="none" stroke-width="0.3985" stroke-linecap="butt" stroke-linejoin="miter" stroke="rgb(0%, 0%, 0%)" stroke-opacity="1" stroke-miterlimit="10" d="M 0.793254 34.014171 L -0.793212 34.014171 " transform="matrix(0.99228, 0, 0, -0.99228, 58.271464, 51.579707)"/>
<g fill="rgb(0%, 0%, 0%)" fill-opacity="1">
<use xlink:href="#glyph-1-2" x="52.343583" y="20.134353"/>
</g>
<g clip-path="url(#clip-1)">
<path fill="none" stroke-width="0.99628" stroke-linecap="butt" stroke-linejoin="miter" stroke="rgb(4.31366%, 36.863708%, 84.313965%)" stroke-opacity="1" stroke-miterlimit="10" d="M -45.355987 22.676645 C -34.014525 5.670357 -22.676999 -34.01492 -11.339473 -34.01492 C -0.00194759 -34.01492 11.339515 34.014171 22.67704 34.014171 C 34.014566 34.014171 45.356028 3.402852 56.693554 -11.339868 " transform="matrix(0.99228, 0, 0, -0.99228, 58.271464, 51.579707)"/>
</g>
<path fill="none" stroke-width="0.59776" stroke-linecap="butt" stroke-linejoin="miter" stroke="rgb(4.31366%, 36.863708%, 84.313965%)" stroke-opacity="1" stroke-miterlimit="10" d="M -47.647112 20.38552 L -43.060925 24.96777 M -47.647112 24.96777 L -43.060925 20.38552 " transform="matrix(0.99228, 0, 0, -0.99228, 58.271464, 51.579707)"/>
<path fill="none" stroke-width="0.59776" stroke-linecap="butt" stroke-linejoin="miter" stroke="rgb(4.31366%, 36.863708%, 84.313965%)" stroke-opacity="1" stroke-miterlimit="10" d="M -13.630598 -36.306045 L -9.048348 -31.723795 M -13.630598 -31.723795 L -9.048348 -36.306045 " transform="matrix(0.99228, 0, 0, -0.99228, 58.271464, 51.579707)"/>
<path fill="none" stroke-width="0.59776" stroke-linecap="butt" stroke-linejoin="miter" stroke="rgb(4.31366%, 36.863708%, 84.313965%)" stroke-opacity="1" stroke-miterlimit="10" d="M 20.385915 31.723046 L 24.968165 36.305296 M 20.385915 36.305296 L 24.968165 31.723046 " transform="matrix(0.99228, 0, 0, -0.99228, 58.271464, 51.579707)"/>
<path fill="none" stroke-width="0.59776" stroke-linecap="butt" stroke-linejoin="miter" stroke="rgb(4.31366%, 36.863708%, 84.313965%)" stroke-opacity="1" stroke-miterlimit="10" d="M 54.402429 -13.630993 L 58.984679 -9.048743 M 54.402429 -9.048743 L 58.984679 -13.630993 " transform="matrix(0.99228, 0, 0, -0.99228, 58.271464, 51.579707)"/>
</svg>
