<?xml version="1.0" encoding="UTF-8"?>
<svg xmlns="http://www.w3.org/2000/svg" xmlns:xlink="http://www.w3.org/1999/xlink" width="109.571" height="123.04" viewBox="0 0 109.571 123.04">
<defs>
<g>
<g id="glyph-0-0">
<path d="M 0.21875 -3.453125 L 0.28125 -3.265625 L 0.5625 -3.453125 C 0.890625 -3.65625 0.921875 -3.6875 0.984375 -3.6875 C 1.078125 -3.6875 1.140625 -3.59375 1.140625 -3.453125 C 1.140625 -3 0.78125 -1.296875 0.40625 -0.015625 L 0.46875 0.078125 C 0.6875 0.015625 0.890625 -0.03125 1.09375 -0.078125 C 1.265625 -1.1875 1.453125 -1.765625 1.859375 -2.375 C 2.34375 -3.125 3 -3.6875 3.40625 -3.6875 C 3.5 -3.6875 3.5625 -3.59375 3.5625 -3.46875 C 3.5625 -3.3125 3.53125 -3.125 3.453125 -2.84375 L 3 -0.953125 C 2.921875 -0.625 2.875 -0.421875 2.875 -0.28125 C 2.875 -0.046875 2.984375 0.078125 3.140625 0.078125 C 3.375 0.078125 3.703125 -0.109375 4.5625 -0.75 L 4.484375 -0.921875 L 4.25 -0.765625 C 3.984375 -0.59375 3.796875 -0.5 3.703125 -0.5 C 3.640625 -0.5 3.59375 -0.578125 3.59375 -0.671875 C 3.59375 -0.71875 3.59375 -0.8125 3.609375 -0.859375 L 4.203125 -3.3125 C 4.265625 -3.5625 4.296875 -3.8125 4.296875 -3.96875 C 4.296875 -4.171875 4.203125 -4.28125 4.015625 -4.28125 C 3.640625 -4.28125 3.03125 -3.953125 2.5 -3.453125 C 2.171875 -3.140625 1.921875 -2.84375 1.453125 -2.203125 L 1.796875 -3.625 C 1.828125 -3.78125 1.84375 -3.890625 1.84375 -3.984375 C 1.84375 -4.171875 1.78125 -4.28125 1.640625 -4.28125 C 1.453125 -4.28125 1.109375 -4.09375 0.46875 -3.625 Z M 0.21875 -3.453125 "/>
</g>
<g id="glyph-0-1">
<path d="M 2.953125 -0.859375 C 2.890625 -0.65625 2.859375 -0.40625 2.859375 -0.28125 C 2.859375 -0.046875 2.953125 0.078125 3.125 0.078125 C 3.359375 0.078125 3.6875 -0.109375 4.546875 -0.75 L 4.46875 -0.921875 L 4.234375 -0.765625 C 4.015625 -0.625 3.78125 -0.53125 3.6875 -0.53125 C 3.625 -0.53125 3.578125 -0.59375 3.578125 -0.671875 C 3.578125 -0.75 3.59375 -0.84375 3.625 -0.984375 L 3.625 -1.03125 C 3.828125 -2 4.109375 -3.1875 4.375 -4.203125 L 4.3125 -4.28125 L 3.703125 -4.140625 L 3.625 -3.6875 C 3.484375 -2.984375 3.265625 -2.375 2.984375 -1.96875 C 2.46875 -1.15625 1.765625 -0.53125 1.40625 -0.53125 C 1.34375 -0.53125 1.296875 -0.609375 1.296875 -0.75 C 1.296875 -0.875 1.3125 -1 1.359375 -1.21875 L 1.859375 -3.625 C 1.890625 -3.765625 1.90625 -3.890625 1.90625 -4.015625 C 1.90625 -4.171875 1.828125 -4.28125 1.703125 -4.28125 C 1.53125 -4.28125 1.1875 -4.09375 0.53125 -3.625 L 0.28125 -3.453125 L 0.34375 -3.265625 L 0.625 -3.453125 C 0.875 -3.625 0.984375 -3.65625 1.0625 -3.65625 C 1.140625 -3.65625 1.203125 -3.578125 1.203125 -3.484375 C 1.203125 -3.453125 1.203125 -3.359375 1.1875 -3.328125 L 0.625 -0.6875 C 0.609375 -0.609375 0.59375 -0.390625 0.59375 -0.265625 C 0.59375 -0.0625 0.734375 0.09375 0.90625 0.09375 C 1.46875 0.09375 2.546875 -0.890625 3.296875 -2.125 Z M 2.953125 -0.859375 "/>
</g>
<g id="glyph-1-0">
<path d="M 0.125 -1.921875 L 0.15625 -1.8125 L 0.3125 -1.921875 C 0.5 -2.03125 0.515625 -2.046875 0.546875 -2.046875 C 0.59375 -2.046875 0.625 -2 0.625 -1.921875 C 0.625 -1.671875 0.421875 -0.71875 0.234375 -0.015625 L 0.265625 0.046875 C 0.390625 0.015625 0.5 -0.015625 0.609375 -0.046875 C 0.703125 -0.65625 0.8125 -0.984375 1.03125 -1.328125 C 1.296875 -1.734375 1.671875 -2.046875 1.890625 -2.046875 C 1.953125 -2.046875 1.96875 -2 1.96875 -1.921875 C 1.96875 -1.84375 1.953125 -1.734375 1.921875 -1.578125 L 1.65625 -0.53125 C 1.625 -0.34375 1.59375 -0.234375 1.59375 -0.15625 C 1.59375 -0.03125 1.65625 0.046875 1.75 0.046875 C 1.875 0.046875 2.046875 -0.0625 2.53125 -0.421875 L 2.484375 -0.515625 L 2.359375 -0.421875 C 2.21875 -0.328125 2.109375 -0.28125 2.0625 -0.28125 C 2.03125 -0.28125 2 -0.328125 2 -0.375 C 2 -0.40625 2 -0.453125 2 -0.46875 L 2.328125 -1.84375 C 2.359375 -1.984375 2.390625 -2.125 2.390625 -2.203125 C 2.390625 -2.3125 2.328125 -2.375 2.234375 -2.375 C 2.03125 -2.375 1.6875 -2.1875 1.390625 -1.921875 C 1.203125 -1.75 1.0625 -1.578125 0.8125 -1.21875 L 1 -2.015625 C 1.015625 -2.109375 1.03125 -2.15625 1.03125 -2.21875 C 1.03125 -2.328125 0.984375 -2.375 0.90625 -2.375 C 0.8125 -2.375 0.609375 -2.265625 0.25 -2.015625 Z M 0.125 -1.921875 "/>
</g>
<g id="glyph-2-0">
<path d="M 2.078125 -5.453125 C 0.859375 -5.453125 0.234375 -4.46875 0.234375 -2.5625 C 0.234375 -1.640625 0.390625 -0.84375 0.671875 -0.453125 C 0.953125 -0.0625 1.390625 0.15625 1.875 0.15625 C 3.078125 0.15625 3.671875 -0.875 3.671875 -2.890625 C 3.671875 -4.625 3.15625 -5.453125 2.078125 -5.453125 Z M 1.9375 -5.171875 C 2.703125 -5.171875 3.015625 -4.390625 3.015625 -2.5 C 3.015625 -0.8125 2.71875 -0.125 1.984375 -0.125 C 1.21875 -0.125 0.890625 -0.921875 0.890625 -2.84375 C 0.890625 -4.515625 1.1875 -5.171875 1.9375 -5.171875 Z M 1.9375 -5.171875 "/>
</g>
<g id="glyph-2-1">
<path d="M 0.53125 -4.390625 L 0.609375 -4.390625 L 1.625 -4.84375 C 1.640625 -4.859375 1.640625 -4.859375 1.65625 -4.859375 C 1.703125 -4.859375 1.71875 -4.78125 1.71875 -4.59375 L 1.71875 -0.765625 C 1.71875 -0.34375 1.625 -0.265625 1.203125 -0.234375 L 0.765625 -0.21875 L 0.765625 0.03125 C 1.96875 0 1.96875 0 2.0625 0 C 2.171875 0 2.34375 0 2.609375 0.015625 C 2.703125 0.015625 2.984375 0.015625 3.3125 0.03125 L 3.3125 -0.21875 L 2.890625 -0.234375 C 2.453125 -0.265625 2.375 -0.34375 2.375 -0.765625 L 2.375 -5.453125 L 2.265625 -5.484375 C 1.75 -5.21875 1.1875 -4.984375 0.46875 -4.734375 Z M 0.53125 -4.390625 "/>
</g>
<g id="glyph-2-2">
<path d="M 0.125 -0.1875 L 0.125 0.03125 C 1.609375 0 1.609375 0 1.890625 0 C 2.171875 0 2.171875 0 3.703125 0.03125 C 3.6875 -0.140625 3.6875 -0.21875 3.6875 -0.328125 C 3.6875 -0.4375 3.6875 -0.515625 3.703125 -0.6875 C 2.796875 -0.640625 2.421875 -0.640625 0.96875 -0.609375 L 2.40625 -2.140625 C 3.171875 -2.953125 3.40625 -3.390625 3.40625 -3.984375 C 3.40625 -4.890625 2.796875 -5.453125 1.78125 -5.453125 C 1.21875 -5.453125 0.828125 -5.296875 0.4375 -4.890625 L 0.3125 -3.8125 L 0.53125 -3.8125 L 0.640625 -4.1875 C 0.765625 -4.640625 1.046875 -4.84375 1.578125 -4.84375 C 2.265625 -4.84375 2.703125 -4.40625 2.703125 -3.734375 C 2.703125 -3.140625 2.359375 -2.5625 1.46875 -1.609375 Z M 0.125 -0.1875 "/>
</g>
<g id="glyph-2-3">
<path d="M 0.34375 -3.9375 L 0.578125 -3.9375 L 0.734375 -4.375 C 0.8125 -4.65625 1.3125 -4.921875 1.71875 -4.921875 C 2.234375 -4.921875 2.65625 -4.5 2.65625 -4 C 2.65625 -3.40625 2.1875 -2.90625 1.625 -2.90625 C 1.5625 -2.90625 1.484375 -2.921875 1.375 -2.921875 L 1.25 -2.9375 L 1.15625 -2.515625 L 1.21875 -2.46875 C 1.515625 -2.59375 1.671875 -2.640625 1.875 -2.640625 C 2.53125 -2.640625 2.921875 -2.21875 2.921875 -1.5 C 2.921875 -0.703125 2.4375 -0.171875 1.703125 -0.171875 C 1.34375 -0.171875 1.015625 -0.28125 0.78125 -0.5 C 0.578125 -0.6875 0.484375 -0.859375 0.328125 -1.28125 L 0.125 -1.203125 C 0.28125 -0.734375 0.34375 -0.4375 0.390625 -0.046875 C 0.8125 0.09375 1.15625 0.15625 1.453125 0.15625 C 2.09375 0.15625 2.8125 -0.203125 3.25 -0.734375 C 3.515625 -1.046875 3.65625 -1.40625 3.65625 -1.765625 C 3.65625 -2.15625 3.5 -2.484375 3.203125 -2.6875 C 3.015625 -2.828125 2.828125 -2.890625 2.4375 -2.953125 C 3.0625 -3.453125 3.3125 -3.8125 3.3125 -4.28125 C 3.3125 -4.984375 2.71875 -5.453125 1.84375 -5.453125 C 1.296875 -5.453125 0.953125 -5.296875 0.5625 -4.921875 Z M 0.34375 -3.9375 "/>
</g>
<g id="glyph-2-4">
<path d="M 2.21875 -1.4375 L 2.21875 -0.84375 C 2.21875 -0.359375 2.125 -0.25 1.734375 -0.234375 L 1.25 -0.21875 L 1.25 0.03125 C 2.296875 0 2.296875 0 2.484375 0 C 2.6875 0 2.6875 0 3.734375 0.03125 L 3.734375 -0.21875 L 3.359375 -0.234375 C 2.96875 -0.265625 2.875 -0.359375 2.875 -0.84375 L 2.875 -1.4375 C 3.34375 -1.4375 3.515625 -1.421875 3.734375 -1.40625 L 3.734375 -1.953125 C 3.359375 -1.921875 3.203125 -1.921875 3.09375 -1.9375 L 2.875 -1.9375 L 2.875 -3.03125 C 2.875 -4.4375 2.890625 -5.125 2.9375 -5.453125 L 2.84375 -5.484375 L 2.25 -5.265625 L 0.015625 -1.609375 L 0.109375 -1.4375 Z M 2.21875 -1.9375 L 0.515625 -1.9375 L 2.21875 -4.71875 Z M 2.21875 -1.9375 "/>
</g>
<g id="glyph-2-5">
<path d="M 1 -4.78125 C 2.03125 -4.75 2.46875 -4.75 3.421875 -4.75 L 3.453125 -4.78125 C 3.4375 -4.921875 3.4375 -4.984375 3.4375 -5.09375 C 3.4375 -5.203125 3.4375 -5.265625 3.453125 -5.40625 L 3.421875 -5.453125 C 2.828125 -5.421875 2.46875 -5.40625 2.046875 -5.40625 C 1.609375 -5.40625 1.25 -5.421875 0.671875 -5.453125 L 0.625 -5.40625 C 0.625 -4.921875 0.640625 -4.578125 0.640625 -4.328125 C 0.640625 -3.65625 0.609375 -2.890625 0.59375 -2.546875 L 0.75 -2.5 C 1.125 -2.875 1.34375 -2.984375 1.71875 -2.984375 C 2.484375 -2.984375 2.953125 -2.4375 2.953125 -1.59375 C 2.953125 -0.71875 2.453125 -0.203125 1.59375 -0.203125 C 1.15625 -0.203125 0.765625 -0.34375 0.65625 -0.546875 L 0.296875 -1.1875 L 0.109375 -1.078125 C 0.28125 -0.625 0.375 -0.375 0.484375 -0.03125 C 0.71875 0.09375 1.03125 0.15625 1.375 0.15625 C 1.890625 0.15625 2.453125 -0.078125 2.890625 -0.453125 C 3.375 -0.875 3.625 -1.421875 3.625 -2 C 3.625 -2.890625 2.984375 -3.53125 2.09375 -3.53125 C 1.703125 -3.53125 1.421875 -3.421875 0.9375 -3.125 Z M 1 -4.78125 "/>
</g>
<g id="glyph-3-0">
<path d="M 5.421875 -1.890625 C 5.5625 -1.890625 5.71875 -1.890625 5.71875 -2.0625 C 5.71875 -2.21875 5.5625 -2.21875 5.421875 -2.21875 L 0.96875 -2.21875 C 0.828125 -2.21875 0.6875 -2.21875 0.6875 -2.0625 C 0.6875 -1.890625 0.828125 -1.890625 0.96875 -1.890625 Z M 5.421875 -1.890625 "/>
</g>
</g>
<clipPath id="clip-0">
<path clip-rule="nonzero" d="M 91 65 L 108.933594 65 L 108.933594 91 L 91 91 Z M 91 65 "/>
</clipPath>
</defs>
<path fill="none" stroke-width="0.3985" stroke-linecap="butt" stroke-linejoin="miter" stroke="rgb(54.902649%, 54.902649%, 54.902649%)" stroke-opacity="1" stroke-miterlimit="10" d="M -14.172131 -42.521864 L 85.041285 -42.521864 M -14.172131 -28.345707 L 85.041285 -28.345707 M -14.172131 -14.173487 L 85.041285 -14.173487 M -14.172131 -0.00126621 L 85.041285 -0.00126621 M -14.172131 14.174891 L 85.041285 14.174891 M -14.172131 28.347111 L 85.041285 28.347111 M -14.172131 42.519332 L 85.041285 42.519332 M -14.172131 56.695489 L 85.041285 56.695489 M -14.172131 70.855899 L 85.041285 70.855899 M -14.172131 -42.521864 L -14.172131 70.867709 M 0.0000889954 -42.521864 L 0.0000889954 70.867709 M 14.172309 -42.521864 L 14.172309 70.867709 M 28.348467 -42.521864 L 28.348467 70.867709 M 42.520687 -42.521864 L 42.520687 70.867709 M 56.692907 -42.521864 L 56.692907 70.867709 M 70.865128 -42.521864 L 70.865128 70.867709 M 85.029475 -42.521864 L 85.029475 70.867709 " transform="matrix(0.992258, 0, 0, -0.992258, 16.851474, 78.018275)"/>
<path fill="none" stroke-width="0.79701" stroke-linecap="butt" stroke-linejoin="miter" stroke="rgb(0%, 0%, 0%)" stroke-opacity="1" stroke-miterlimit="10" d="M -14.172131 -0.00126621 L 87.210422 -0.00126621 " transform="matrix(0.992258, 0, 0, -0.992258, 16.851474, 78.018275)"/>
<path fill-rule="nonzero" fill="rgb(0%, 0%, 0%)" fill-opacity="1" d="M 105.734375 78.019531 L 102.511719 76.796875 L 103.585938 78.019531 L 102.511719 79.238281 Z M 105.734375 78.019531 "/>
<g clip-path="url(#clip-0)">
<path fill="none" stroke-width="0.79701" stroke-linecap="butt" stroke-linejoin="miter" stroke="rgb(0%, 0%, 0%)" stroke-opacity="1" stroke-miterlimit="10" d="M 4.536115 -0.00126621 L 1.288315 1.23093 L 2.370915 -0.00126621 L 1.288315 -1.229525 Z M 4.536115 -0.00126621 " transform="matrix(0.992258, 0, 0, -0.992258, 101.233378, 78.018275)"/>
</g>
<g fill="rgb(0%, 0%, 0%)" fill-opacity="1">
<use xlink:href="#glyph-0-0" x="98.785199" y="85.335186"/>
</g>
<path fill="none" stroke-width="0.79701" stroke-linecap="butt" stroke-linejoin="miter" stroke="rgb(0%, 0%, 0%)" stroke-opacity="1" stroke-miterlimit="10" d="M 0.0000889954 -42.521864 L 0.0000889954 73.036846 " transform="matrix(0.992258, 0, 0, -0.992258, 16.851474, 78.018275)"/>
<path fill-rule="nonzero" fill="rgb(0%, 0%, 0%)" fill-opacity="1" stroke-width="0.79701" stroke-linecap="butt" stroke-linejoin="miter" stroke="rgb(0%, 0%, 0%)" stroke-opacity="1" stroke-miterlimit="10" d="M 4.53594 -0.0000889954 L 1.288139 1.232107 L 2.37074 -0.0000889954 L 1.288139 -1.232285 Z M 4.53594 -0.0000889954 " transform="matrix(0, -0.992258, -0.992258, 0, 16.851474, 7.700042)"/>
<g fill="rgb(0%, 0%, 0%)" fill-opacity="1">
<use xlink:href="#glyph-0-1" x="5.412723" y="9.392715"/>
</g>
<g fill="rgb(0%, 0%, 0%)" fill-opacity="1">
<use xlink:href="#glyph-1-0" x="10.532775" y="10.727302"/>
</g>
<g fill="rgb(0%, 0%, 0%)" fill-opacity="1">
<use xlink:href="#glyph-2-0" x="11.217433" y="85.101013"/>
</g>
<path fill="none" stroke-width="0.3985" stroke-linecap="butt" stroke-linejoin="miter" stroke="rgb(0%, 0%, 0%)" stroke-opacity="1" stroke-miterlimit="10" d="M 14.172309 0.990789 L 14.172309 -0.993322 " transform="matrix(0.992258, 0, 0, -0.992258, 16.851474, 78.018275)"/>
<g fill="rgb(0%, 0%, 0%)" fill-opacity="1">
<use xlink:href="#glyph-2-1" x="28.93817" y="86.203412"/>
</g>
<path fill="none" stroke-width="0.3985" stroke-linecap="butt" stroke-linejoin="miter" stroke="rgb(0%, 0%, 0%)" stroke-opacity="1" stroke-miterlimit="10" d="M 28.348467 0.990789 L 28.348467 -0.993322 " transform="matrix(0.992258, 0, 0, -0.992258, 16.851474, 78.018275)"/>
<g fill="rgb(0%, 0%, 0%)" fill-opacity="1">
<use xlink:href="#glyph-2-2" x="43.001443" y="86.085333"/>
</g>
<path fill="none" stroke-width="0.3985" stroke-linecap="butt" stroke-linejoin="miter" stroke="rgb(0%, 0%, 0%)" stroke-opacity="1" stroke-miterlimit="10" d="M 42.520687 0.990789 L 42.520687 -0.993322 " transform="matrix(0.992258, 0, 0, -0.992258, 16.851474, 78.018275)"/>
<g fill="rgb(0%, 0%, 0%)" fill-opacity="1">
<use xlink:href="#glyph-2-3" x="57.064717" y="86.085333"/>
</g>
<path fill="none" stroke-width="0.3985" stroke-linecap="butt" stroke-linejoin="miter" stroke="rgb(0%, 0%, 0%)" stroke-opacity="1" stroke-miterlimit="10" d="M 56.692907 0.990789 L 56.692907 -0.993322 " transform="matrix(0.992258, 0, 0, -0.992258, 16.851474, 78.018275)"/>
<g fill="rgb(0%, 0%, 0%)" fill-opacity="1">
<use xlink:href="#glyph-2-4" x="71.128983" y="86.203412"/>
</g>
<path fill="none" stroke-width="0.3985" stroke-linecap="butt" stroke-linejoin="miter" stroke="rgb(0%, 0%, 0%)" stroke-opacity="1" stroke-miterlimit="10" d="M 70.865128 0.990789 L 70.865128 -0.993322 " transform="matrix(0.992258, 0, 0, -0.992258, 16.851474, 78.018275)"/>
<g fill="rgb(0%, 0%, 0%)" fill-opacity="1">
<use xlink:href="#glyph-2-5" x="85.192256" y="86.085333"/>
</g>
<path fill="none" stroke-width="0.3985" stroke-linecap="butt" stroke-linejoin="miter" stroke="rgb(0%, 0%, 0%)" stroke-opacity="1" stroke-miterlimit="10" d="M 0.992144 -28.345707 L -0.991966 -28.345707 " transform="matrix(0.992258, 0, 0, -0.992258, 16.851474, 78.018275)"/>
<g fill="rgb(0%, 0%, 0%)" fill-opacity="1">
<use xlink:href="#glyph-3-0" x="3.727869" y="108.506396"/>
</g>
<g fill="rgb(0%, 0%, 0%)" fill-opacity="1">
<use xlink:href="#glyph-2-2" x="10.232312" y="108.506396"/>
</g>
<path fill="none" stroke-width="0.3985" stroke-linecap="butt" stroke-linejoin="miter" stroke="rgb(0%, 0%, 0%)" stroke-opacity="1" stroke-miterlimit="10" d="M 0.992144 -14.173487 L -0.991966 -14.173487 " transform="matrix(0.992258, 0, 0, -0.992258, 16.851474, 78.018275)"/>
<g fill="rgb(0%, 0%, 0%)" fill-opacity="1">
<use xlink:href="#glyph-3-0" x="3.727869" y="94.501666"/>
</g>
<g fill="rgb(0%, 0%, 0%)" fill-opacity="1">
<use xlink:href="#glyph-2-1" x="10.232312" y="94.501666"/>
</g>
<path fill="none" stroke-width="0.3985" stroke-linecap="butt" stroke-linejoin="miter" stroke="rgb(0%, 0%, 0%)" stroke-opacity="1" stroke-miterlimit="10" d="M 0.992144 14.174891 L -0.991966 14.174891 " transform="matrix(0.992258, 0, 0, -0.992258, 16.851474, 78.018275)"/>
<g fill="rgb(0%, 0%, 0%)" fill-opacity="1">
<use xlink:href="#glyph-2-1" x="10.232121" y="66.691649"/>
</g>
<path fill="none" stroke-width="0.3985" stroke-linecap="butt" stroke-linejoin="miter" stroke="rgb(0%, 0%, 0%)" stroke-opacity="1" stroke-miterlimit="10" d="M 0.992144 28.347111 L -0.991966 28.347111 " transform="matrix(0.992258, 0, 0, -0.992258, 16.851474, 78.018275)"/>
<g fill="rgb(0%, 0%, 0%)" fill-opacity="1">
<use xlink:href="#glyph-2-2" x="10.232121" y="52.56884"/>
</g>
<path fill="none" stroke-width="0.3985" stroke-linecap="butt" stroke-linejoin="miter" stroke="rgb(0%, 0%, 0%)" stroke-opacity="1" stroke-miterlimit="10" d="M 0.992144 42.519332 L -0.991966 42.519332 " transform="matrix(0.992258, 0, 0, -0.992258, 16.851474, 78.018275)"/>
<g fill="rgb(0%, 0%, 0%)" fill-opacity="1">
<use xlink:href="#glyph-2-3" x="10.232121" y="38.465876"/>
</g>
<path fill="none" stroke-width="0.3985" stroke-linecap="butt" stroke-linejoin="miter" stroke="rgb(0%, 0%, 0%)" stroke-opacity="1" stroke-miterlimit="10" d="M 0.992144 56.695489 L -0.991966 56.695489 " transform="matrix(0.992258, 0, 0, -0.992258, 16.851474, 78.018275)"/>
<g fill="rgb(0%, 0%, 0%)" fill-opacity="1">
<use xlink:href="#glyph-2-4" x="10.232121" y="24.500836"/>
</g>
<path fill="none" stroke-width="0.59776" stroke-linecap="butt" stroke-linejoin="miter" stroke="rgb(4.31366%, 36.863708%, 84.313965%)" stroke-opacity="1" stroke-miterlimit="10" d="M -2.291087 54.400377 L 2.291265 58.986665 M -2.291087 58.986665 L 2.291265 54.400377 " transform="matrix(0.992258, 0, 0, -0.992258, 16.851474, 78.018275)"/>
<path fill="none" stroke-width="0.59776" stroke-linecap="butt" stroke-linejoin="miter" stroke="rgb(4.31366%, 36.863708%, 84.313965%)" stroke-opacity="1" stroke-miterlimit="10" d="M 11.881134 -2.292442 L 16.463485 2.289909 M 11.881134 2.289909 L 16.463485 -2.292442 " transform="matrix(0.992258, 0, 0, -0.992258, 16.851474, 78.018275)"/>
<path fill="none" stroke-width="0.59776" stroke-linecap="butt" stroke-linejoin="miter" stroke="rgb(4.31366%, 36.863708%, 84.313965%)" stroke-opacity="1" stroke-miterlimit="10" d="M 26.057291 -30.636883 L 30.639642 -26.054531 M 26.057291 -26.054531 L 30.639642 -30.636883 " transform="matrix(0.992258, 0, 0, -0.992258, 16.851474, 78.018275)"/>
<path fill="none" stroke-width="0.59776" stroke-linecap="butt" stroke-linejoin="miter" stroke="rgb(4.31366%, 36.863708%, 84.313965%)" stroke-opacity="1" stroke-miterlimit="10" d="M 40.229511 -30.636883 L 44.811863 -26.054531 M 40.229511 -26.054531 L 44.811863 -30.636883 " transform="matrix(0.992258, 0, 0, -0.992258, 16.851474, 78.018275)"/>
<path fill="none" stroke-width="0.59776" stroke-linecap="butt" stroke-linejoin="miter" stroke="rgb(4.31366%, 36.863708%, 84.313965%)" stroke-opacity="1" stroke-miterlimit="10" d="M 54.401732 -2.292442 L 58.984083 2.289909 M 54.401732 2.289909 L 58.984083 -2.292442 " transform="matrix(0.992258, 0, 0, -0.992258, 16.851474, 78.018275)"/>
<path fill="none" stroke-width="0.59776" stroke-linecap="butt" stroke-linejoin="miter" stroke="rgb(4.31366%, 36.863708%, 84.313965%)" stroke-opacity="1" stroke-miterlimit="10" d="M 68.573952 54.400377 L 73.16024 58.986665 M 68.573952 58.986665 L 73.16024 54.400377 " transform="matrix(0.992258, 0, 0, -0.992258, 16.851474, 78.018275)"/>
</svg>
